<svg xmlns="http://www.w3.org/2000/svg" width="360" height="440" viewBox="0 0 360 440">
  <rect width="360" height="440" fill="#ffffff" stroke="#e5e7eb" stroke-width="2" rx="12"/>
  <text x="180" y="42" text-anchor="middle" font-family="Arial, sans-serif" font-size="22" font-weight="bold" fill="#e11d48">QRIS</text>
  <text x="180" y="64" text-anchor="middle" font-family="Arial, sans-serif" font-size="13" fill="#374151">Toko Alat Tulis Agung</text>
  <!-- Pola menyerupai QR sebagai placeholder (bukan kode QR asli) -->
  <g fill="#111827" transform="translate(60,84)">
    <rect x="0" y="0" width="70" height="70"/><rect x="10" y="10" width="50" height="50" fill="#fff"/><rect x="20" y="20" width="30" height="30"/>
    <rect x="170" y="0" width="70" height="70"/><rect x="180" y="10" width="50" height="50" fill="#fff"/><rect x="190" y="20" width="30" height="30"/>
    <rect x="0" y="170" width="70" height="70"/><rect x="10" y="180" width="50" height="50" fill="#fff"/><rect x="20" y="190" width="30" height="30"/>
    <rect x="90" y="0" width="10" height="10"/><rect x="110" y="0" width="20" height="10"/><rect x="140" y="10" width="10" height="20"/>
    <rect x="90" y="30" width="20" height="10"/><rect x="120" y="30" width="10" height="20"/><rect x="140" y="40" width="20" height="10"/>
    <rect x="90" y="60" width="10" height="10"/><rect x="110" y="60" width="30" height="10"/>
    <rect x="0" y="90" width="10" height="10"/><rect x="20" y="90" width="20" height="10"/><rect x="50" y="90" width="10" height="20"/>
    <rect x="70" y="90" width="20" height="10"/><rect x="100" y="90" width="10" height="30"/><rect x="120" y="100" width="20" height="10"/>
    <rect x="150" y="90" width="10" height="20"/><rect x="170" y="90" width="20" height="10"/><rect x="200" y="90" width="10" height="30"/>
    <rect x="220" y="100" width="20" height="10"/><rect x="0" y="120" width="20" height="10"/><rect x="30" y="120" width="10" height="20"/>
    <rect x="60" y="120" width="20" height="10"/><rect x="90" y="130" width="10" height="10"/><rect x="110" y="120" width="10" height="20"/>
    <rect x="130" y="130" width="20" height="10"/><rect x="160" y="120" width="10" height="10"/><rect x="180" y="130" width="20" height="10"/>
    <rect x="210" y="120" width="10" height="20"/><rect x="230" y="130" width="10" height="10"/>
    <rect x="0" y="150" width="10" height="10"/><rect x="20" y="150" width="10" height="10"/><rect x="40" y="150" width="20" height="10"/>
    <rect x="70" y="150" width="10" height="10"/><rect x="90" y="150" width="20" height="10"/><rect x="120" y="150" width="10" height="10"/>
    <rect x="140" y="150" width="20" height="10"/><rect x="170" y="150" width="10" height="10"/><rect x="190" y="150" width="10" height="10"/>
    <rect x="210" y="150" width="20" height="10"/><rect x="90" y="170" width="10" height="20"/><rect x="110" y="170" width="20" height="10"/>
    <rect x="140" y="180" width="10" height="20"/><rect x="160" y="170" width="20" height="10"/><rect x="190" y="170" width="10" height="10"/>
    <rect x="210" y="180" width="20" height="10"/><rect x="90" y="200" width="20" height="10"/><rect x="120" y="200" width="10" height="10"/>
    <rect x="140" y="210" width="20" height="10"/><rect x="170" y="200" width="10" height="20"/><rect x="200" y="200" width="20" height="10"/>
    <rect x="230" y="210" width="10" height="10"/><rect x="90" y="230" width="10" height="10"/><rect x="110" y="230" width="20" height="10"/>
    <rect x="150" y="230" width="10" height="10"/><rect x="180" y="230" width="20" height="10"/><rect x="210" y="230" width="10" height="10"/>
  </g>
  <text x="180" y="360" text-anchor="middle" font-family="Arial, sans-serif" font-size="13" font-weight="bold" fill="#b91c1c">CONTOH / PLACEHOLDER</text>
  <text x="180" y="380" text-anchor="middle" font-family="Arial, sans-serif" font-size="11" fill="#6b7280">Ganti dengan gambar QRIS asli toko</text>
  <text x="180" y="396" text-anchor="middle" font-family="Arial, sans-serif" font-size="11" fill="#6b7280">melalui menu Pengaturan &#8594; Pembayaran</text>
  <text x="180" y="424" text-anchor="middle" font-family="Arial, sans-serif" font-size="10" fill="#9ca3af">NMID: ID0000000000000 (contoh)</text>
</svg>
